<svg width="1512" height="737" viewBox="0 0 1512 737" fill="none" xmlns="http://www.w3.org/2000/svg">
<path d="M1512 539H0V670.233C0 670.233 377.513 820.458 796.43 670.233C1215.35 520.008 1512 670.233 1512 670.233V539Z" fill="#23568D"/>
<rect width="1512" height="596" fill="#23568D"/>
<g opacity="0.15">
<g opacity="0.63">
<path d="M1034.36 114.146C921.506 145.631 837.964 242.992 828.023 359.74C819.746 456.804 863.809 553.713 1073.14 553.079C1491.78 551.782 1516.33 473.922 1480.15 319.033C1448.63 184.11 1320.27 34.354 1034.38 114.146H1034.36Z" fill="#DAECFA"/>
</g>
<path d="M971.321 199.677C977.037 199.677 981.671 195.043 981.671 189.327C981.671 183.611 977.037 178.978 971.321 178.978C965.606 178.978 960.972 183.611 960.972 189.327C960.972 195.043 965.606 199.677 971.321 199.677Z" fill="white"/>
<path d="M1444.95 413.813C1447.55 413.813 1449.65 411.711 1449.65 409.118C1449.65 406.525 1447.55 404.423 1444.95 404.423C1442.36 404.423 1440.26 406.525 1440.26 409.118C1440.26 411.711 1442.36 413.813 1444.95 413.813Z" fill="white"/>
<path d="M910.015 412.629C914.375 412.629 917.911 409.094 917.911 404.733C917.911 400.372 914.375 396.837 910.015 396.837C905.654 396.837 902.119 400.372 902.119 404.733C902.119 409.094 905.654 412.629 910.015 412.629Z" fill="white"/>
<path d="M1074.58 249.548C1078.34 249.548 1081.4 246.493 1081.4 242.724C1081.4 238.955 1078.34 235.899 1074.58 235.899C1070.81 235.899 1067.75 238.955 1067.75 242.724C1067.75 246.493 1070.81 249.548 1074.58 249.548Z" fill="white"/>
<path d="M927.724 275.69C929.609 275.69 931.136 274.162 931.136 272.277C931.136 270.393 929.609 268.865 927.724 268.865C925.84 268.865 924.312 270.393 924.312 272.277C924.312 274.162 925.84 275.69 927.724 275.69Z" fill="white"/>
<path d="M1077.99 143.023C1079.87 143.023 1081.4 141.495 1081.4 139.611C1081.4 137.726 1079.87 136.198 1077.99 136.198C1076.1 136.198 1074.58 137.726 1074.58 139.611C1074.58 141.495 1076.1 143.023 1077.99 143.023Z" fill="white"/>
<path d="M1401.43 292.271C1405.2 292.271 1408.25 289.216 1408.25 285.447C1408.25 281.678 1405.2 278.622 1401.43 278.622C1397.66 278.622 1394.6 281.678 1394.6 285.447C1394.6 289.216 1397.66 292.271 1401.43 292.271Z" fill="white"/>
<path d="M1379.64 493.633C1382.31 493.633 1384.47 491.474 1384.47 488.811C1384.47 486.148 1382.31 483.989 1379.64 483.989C1376.98 483.989 1374.82 486.148 1374.82 488.811C1374.82 491.474 1376.98 493.633 1379.64 493.633Z" fill="white"/>
<path d="M976.567 491.053C979.23 491.053 981.389 488.894 981.389 486.231C981.389 483.568 979.23 481.409 976.567 481.409C973.903 481.409 971.744 483.568 971.744 486.231C971.744 488.894 973.903 491.053 976.567 491.053Z" fill="white"/>
<path d="M1260.17 268.865C1263.94 268.865 1267 265.81 1267 262.041C1267 258.272 1263.94 255.216 1260.17 255.216C1256.4 255.216 1253.35 258.272 1253.35 262.041C1253.35 265.81 1256.4 268.865 1260.17 268.865Z" fill="white"/>
<path d="M1032.74 426.419C1036.51 426.419 1039.57 423.363 1039.57 419.594C1039.57 415.825 1036.51 412.77 1032.74 412.77C1028.97 412.77 1025.92 415.825 1025.92 419.594C1025.92 423.363 1028.97 426.419 1032.74 426.419Z" fill="white"/>
<path d="M1267 436.007C1270.97 436.007 1274.19 432.787 1274.19 428.816C1274.19 424.844 1270.97 421.625 1267 421.625C1263.03 421.625 1259.81 424.844 1259.81 428.816C1259.81 432.787 1263.03 436.007 1267 436.007Z" fill="white"/>
<path d="M1187.22 135.141C1192.94 135.141 1197.57 130.507 1197.57 124.791C1197.57 119.076 1192.94 114.442 1187.22 114.442C1181.5 114.442 1176.87 119.076 1176.87 124.791C1176.87 130.507 1181.5 135.141 1187.22 135.141Z" fill="white"/>
<path d="M1364.05 243.612C1411.43 243.612 1449.83 205.205 1449.83 157.828C1449.83 110.45 1411.43 72.0433 1364.05 72.0433C1316.67 72.0433 1278.26 110.45 1278.26 157.828C1278.26 205.205 1316.67 243.612 1364.05 243.612Z" fill="#FFD200"/>
<path d="M1103.4 400.108L1036.28 349.01L1002.57 328.17L986.014 299.448L994.6 327.549L962.1 323.037L992.147 337.363L977.427 353.31L1003.17 342.213L1032.74 357.808L1099.43 416.168L1103.4 400.108Z" fill="#A5A5A5"/>
<path d="M1211.28 396.075L1278.38 344.977L1312.1 324.137L1328.66 295.416L1320.07 323.531L1352.57 319.005L1322.52 333.33L1337.24 349.278L1311.5 338.181L1281.93 353.775L1215.24 412.135L1211.28 396.075Z" fill="#A5A5A5"/>
<path d="M1154.04 636.297C1214.83 636.297 1264.11 587.02 1264.11 526.232C1264.11 465.446 1214.83 416.168 1154.04 416.168C1093.26 416.168 1043.98 465.446 1043.98 526.232C1043.98 587.02 1093.26 636.297 1154.04 636.297Z" fill="#68E1FD"/>
<path d="M1153.44 478.687C1193.63 478.687 1226.21 446.107 1226.21 405.917C1226.21 365.727 1193.63 333.147 1153.44 333.147C1113.25 333.147 1080.67 365.727 1080.67 405.917C1080.67 446.107 1113.25 478.687 1153.44 478.687Z" fill="#68E1FD"/>
<path d="M1153.44 359.655C1181.07 359.655 1203.48 337.251 1203.48 309.614C1203.48 281.977 1181.07 259.573 1153.44 259.573C1125.8 259.573 1103.4 281.977 1103.4 309.614C1103.4 337.251 1125.8 359.655 1153.44 359.655Z" fill="#68E1FD"/>
<path d="M1219.04 437.431C1223.63 427.899 1226.21 417.211 1226.21 405.917C1226.21 379.226 1211.84 355.919 1190.42 343.243C1198.51 334.36 1203.48 322.572 1203.48 309.614C1203.48 281.978 1181.07 259.573 1153.44 259.573C1125.8 259.573 1103.4 281.978 1103.4 309.614C1103.4 322.586 1108.37 334.36 1116.45 343.243C1095.03 355.905 1080.67 379.226 1080.67 405.917C1080.67 417.465 1083.37 428.379 1088.15 438.065C1061.35 458.144 1043.99 490.151 1043.99 526.218C1043.99 587.004 1093.27 636.283 1154.06 636.283C1214.84 636.283 1264.12 587.004 1264.12 526.218C1264.12 489.756 1246.37 457.439 1219.06 437.417L1219.04 437.431Z" fill="white"/>
<path d="M1219.5 285.334H1086.39V299.448H1219.5V285.334Z" fill="#24285B"/>
<path d="M1203.48 381.834C1203.48 381.834 1246.58 485.737 1289.5 514.558L1261.3 539.698C1261.3 539.698 1225.14 511.554 1182.22 392.579L1203.48 381.834Z" fill="#C01328"/>
<g opacity="0.09">
<path d="M1203.48 381.834C1203.48 381.834 1246.58 485.737 1289.5 514.558L1261.3 539.698C1261.3 539.698 1225.14 511.554 1182.22 392.579L1203.48 381.834Z" fill="#000001"/>
</g>
<path d="M1109.67 285.334C1109.67 285.334 1134.18 236.196 1120.27 178.978H1203.46C1203.46 178.978 1178.44 233.911 1197.18 285.334H1109.66H1109.67Z" fill="#24285B"/>
<g opacity="0.17">
<path d="M1116.23 268.259H1192.49C1192.49 268.259 1195.61 283.275 1197.19 285.334H1109.67L1116.23 268.259Z" fill="white"/>
</g>
<path d="M1106.98 328.226C1106.98 328.226 1111.7 352.083 1144.81 349.01C1177.91 345.95 1201.64 323.037 1201.64 323.037C1201.64 323.037 1227.42 342.425 1216.15 369.018C1204.89 395.61 1118.98 408.314 1097.25 359.655C1097.25 359.655 1094.29 337.476 1106.98 328.226Z" fill="#E50000"/>
<path d="M1166.9 392.254C1166.9 392.254 1211.68 490.644 1166.9 558.705L1203.48 580.165C1203.48 580.165 1244.44 472.314 1195.24 385.881L1166.92 392.254H1166.9Z" fill="#DA0E0E"/>
<path d="M1143.85 324.419L1133.74 367.396L1160.66 332.499C1165.79 325.843 1160.49 316.128 1152.14 317.087C1151.98 317.101 1151.84 317.13 1151.69 317.144C1147.84 317.665 1144.75 320.64 1143.86 324.419H1143.85Z" fill="#FFD200"/>
<path d="M1152.73 423.401C1156.45 423.401 1159.47 420.384 1159.47 416.661C1159.47 412.939 1156.45 409.922 1152.73 409.922C1149.01 409.922 1145.99 412.939 1145.99 416.661C1145.99 420.384 1149.01 423.401 1152.73 423.401Z" fill="#24285B"/>
<path d="M1152.73 467.999C1156.45 467.999 1159.47 464.982 1159.47 461.26C1159.47 457.537 1156.45 454.52 1152.73 454.52C1149.01 454.52 1145.99 457.537 1145.99 461.26C1145.99 464.982 1149.01 467.999 1152.73 467.999Z" fill="#24285B"/>
<path d="M1152.73 514.755C1156.45 514.755 1159.47 511.738 1159.47 508.015C1159.47 504.293 1156.45 501.276 1152.73 501.276C1149.01 501.276 1145.99 504.293 1145.99 508.015C1145.99 511.738 1149.01 514.755 1152.73 514.755Z" fill="#24285B"/>
</g>
</svg>
