<svg width="346" height="345" viewBox="0 0 346 345" fill="none" xmlns="http://www.w3.org/2000/svg">
<path d="M343.3 172.8C343.3 266.8 267.1 343.1 173 343C78.9 342.9 2.69998 266.8 2.69998 172.8C2.69998 78.8 78.9 2.60001 173 2.60001C266.7 2.30001 343 78.1 343.3 171.8C343.3 172.1 343.3 172.4 343.3 172.8Z" fill="#DAECFA"/>
<path d="M173 344.9C78 344.9 0.899994 267.8 0.899994 172.8C0.899994 77.9 78.1 0.700012 173 0.700012C267.9 0.700012 345.1 77.9 345.1 172.8C345.1 267.8 268 344.9 173 344.9ZM173 4.40002C80.1 4.40002 4.59999 80 4.59999 172.8C4.59999 265.8 80 341.2 173 341.2C216.5 341.2 258.3 324.4 289.7 294.2C322.9 262.5 341.6 218.6 341.5 172.7C341.4 79.9 265.9 4.40002 173 4.40002Z" fill="#093F68"/>
<path d="M76.2 176.5C80.066 176.5 83.2 173.366 83.2 169.5C83.2 165.634 80.066 162.5 76.2 162.5C72.334 162.5 69.2 165.634 69.2 169.5C69.2 173.366 72.334 176.5 76.2 176.5Z" fill="#23568D"/>
<path d="M255.9 186.6C259.766 186.6 262.9 183.466 262.9 179.6C262.9 175.734 259.766 172.6 255.9 172.6C252.034 172.6 248.9 175.734 248.9 179.6C248.9 183.466 252.034 186.6 255.9 186.6Z" fill="#23568D"/>
<path d="M312.9 149.6C316.766 149.6 319.9 146.466 319.9 142.6C319.9 138.734 316.766 135.6 312.9 135.6C309.034 135.6 305.9 138.734 305.9 142.6C305.9 146.466 309.034 149.6 312.9 149.6Z" fill="#23568D"/>
<path d="M262.9 116.9C266.766 116.9 269.9 113.766 269.9 109.9C269.9 106.034 266.766 102.9 262.9 102.9C259.034 102.9 255.9 106.034 255.9 109.9C255.9 113.766 259.034 116.9 262.9 116.9Z" fill="#23568D"/>
<path d="M259.9 70.1C263.766 70.1 266.9 66.966 266.9 63.1C266.9 59.234 263.766 56.1 259.9 56.1C256.034 56.1 252.9 59.234 252.9 63.1C252.9 66.966 256.034 70.1 259.9 70.1Z" fill="#23568D"/>
<path d="M312.9 236.8C316.766 236.8 319.9 233.666 319.9 229.8C319.9 225.934 316.766 222.8 312.9 222.8C309.034 222.8 305.9 225.934 305.9 229.8C305.9 233.666 309.034 236.8 312.9 236.8Z" fill="#23568D"/>
<path d="M27.8 136.4C31.666 136.4 34.8 133.266 34.8 129.4C34.8 125.534 31.666 122.4 27.8 122.4C23.934 122.4 20.8 125.534 20.8 129.4C20.8 133.266 23.934 136.4 27.8 136.4Z" fill="#23568D"/>
<path d="M80 122.4C83.866 122.4 87 119.266 87 115.4C87 111.534 83.866 108.4 80 108.4C76.134 108.4 73 111.534 73 115.4C73 119.266 76.134 122.4 80 122.4Z" fill="#23568D"/>
<path d="M90.8 65.5C94.666 65.5 97.8 62.366 97.8 58.5C97.8 54.634 94.666 51.5 90.8 51.5C86.934 51.5 83.8 54.634 83.8 58.5C83.8 62.366 86.934 65.5 90.8 65.5Z" fill="#23568D"/>
<path d="M153.5 37C157.366 37 160.5 33.866 160.5 30C160.5 26.134 157.366 23 153.5 23C149.634 23 146.5 26.134 146.5 30C146.5 33.866 149.634 37 153.5 37Z" fill="#23568D"/>
<path d="M173 222.4C207.573 222.4 235.6 194.373 235.6 159.8C235.6 125.227 207.573 97.2 173 97.2C138.427 97.2 110.4 125.227 110.4 159.8C110.4 194.373 138.427 222.4 173 222.4Z" fill="white"/>
<path d="M173 224.2C137.4 224.2 108.6 195.4 108.6 159.8C108.6 124.2 137.4 95.4 173 95.4C208.6 95.4 237.4 124.2 237.4 159.8C237.4 195.3 208.5 224.2 173 224.2ZM173 99.1C139.5 99.1 112.3 126.3 112.3 159.8C112.3 193.3 139.5 220.5 173 220.6C206.5 220.7 233.7 193.4 233.8 159.9C233.7 126.3 206.5 99.1 173 99.1Z" fill="#093F68"/>
<path d="M290.9 295.6C225 358.9 120.9 358.9 55.1 295.6C66.5 244.8 115 206.7 173 206.7C231 206.7 279.5 244.8 290.9 295.6Z" fill="white"/>
<path d="M173 344.9C128.5 345 85.8 327.8 53.8 296.9C53.3 296.5 53.1 295.8 53.3 295.2C65.1 242.8 115.4 204.8 173 204.8C230.6 204.8 280.9 242.8 292.7 295.2C292.8 295.8 292.6 296.5 292.2 296.9C260.2 327.8 217.5 345 173 344.9ZM57.1 295C122.1 356.6 223.9 356.6 288.9 295C277.1 244.8 228.5 208.5 173 208.5C117.5 208.5 68.9 244.8 57.1 295Z" fill="#093F68"/>
<path d="M149.5 212.8L152.3 259.8L124.1 257.4L135.8 211L149.5 212.8Z" fill="#FF0E0E"/>
<path d="M152.3 261.6H152.1L124 259.2C123 259.1 122.2 258.2 122.3 257.2C122.3 257.1 122.3 257 122.3 256.9L133.9 210.5C134.1 209.6 135 209 135.9 209.1L149.6 210.8C150.5 210.9 151.1 211.6 151.2 212.5L153.9 259.5C154.1 260.6 153.4 261.5 152.3 261.6ZM126.4 255.7L150.3 257.7L147.8 214.3L137.2 213L126.4 255.7Z" fill="#093F68"/>
<path d="M155.7 78.8L229.8 100.7C231.6 101.2 232.6 103.1 232 104.8L228.1 117.9C227.6 119.7 225.7 120.7 224 120.1L150 98.2C148.2 97.7 147.2 95.8 147.8 94.1L151.7 81C152.1 79.3 154 78.3 155.7 78.8Z" fill="#23568D"/>
<path d="M223.2 121.4C222.4 121.4 221.7 121.3 221 121.1L152.1 100.8C147.9 99.6 145.5 95.2 146.8 91L149.1 83.2C150.3 79 154.7 76.6 158.9 77.9L227.8 98.2C232 99.4 234.4 103.8 233.1 108L230.8 115.8C229.8 119.1 226.7 121.4 223.2 121.4ZM156.6 81.2C155.9 81.2 155.2 81.4 154.6 81.7C153.6 82.2 152.9 83.1 152.6 84.2L150.2 92C149.5 94.2 150.8 96.6 153.1 97.2L222 117.5C224.2 118.2 226.6 116.9 227.2 114.7L229.5 106.9C230.2 104.7 228.9 102.3 226.6 101.7L157.7 81.4C157.5 81.2 157.1 81.2 156.6 81.2Z" fill="#093F68"/>
<path d="M181.931 34.5851L167.828 82.3483L218.66 97.3579L232.764 49.5947L181.931 34.5851Z" fill="#23568D"/>
<path d="M218.6 99.2C218.4 99.2 218.2 99.2 218.1 99.1L167.3 84.1C166.3 83.8 165.8 82.8 166.1 81.8L180.2 34.1C180.3 33.6 180.6 33.2 181 33C181.4 32.8 181.9 32.7 182.4 32.8L233.2 47.8C234.2 48.1 234.7 49.1 234.4 50.1L220.3 97.8C220.1 98.6 219.4 99.2 218.6 99.2ZM170.1 81.1L217.4 95.1L230.5 50.9L183.2 36.9L170.1 81.1Z" fill="#093F68"/>
<path d="M176.7 146.2L247.3 151.6L178.1 173.3C178.1 173.4 167.6 161.7 176.7 146.2Z" fill="#F56132"/>
<path d="M178.1 175.2C177.6 175.2 177.1 175 176.7 174.6C176.6 174.5 165.4 161.7 175.1 145.3C175.5 144.7 176.1 144.4 176.8 144.4L247.4 149.8C248.4 149.9 249.2 150.8 249.1 151.8C249 152.5 248.5 153.2 247.8 153.4L178.6 175.1C178.5 175.2 178.3 175.2 178.1 175.2ZM177.8 148.2C171.6 159.6 176.8 168.5 178.8 171.3L237.8 152.8L177.8 148.2Z" fill="#093F68"/>
<path d="M176.3 274C181.05 274 184.9 270.15 184.9 265.4C184.9 260.65 181.05 256.8 176.3 256.8C171.55 256.8 167.7 260.65 167.7 265.4C167.7 270.15 171.55 274 176.3 274Z" fill="#FFBC0E"/>
<path d="M176.3 275.8C170.5 275.8 165.9 271.1 165.9 265.4C165.9 259.6 170.6 255 176.3 255C182.1 255 186.7 259.7 186.7 265.4C186.7 271.2 182.1 275.8 176.3 275.8ZM176.3 258.7C172.6 258.7 169.5 261.7 169.5 265.5C169.5 269.2 172.5 272.3 176.3 272.3C180 272.3 183.1 269.3 183.1 265.5C183.1 261.7 180 258.7 176.3 258.7Z" fill="#093F68"/>
<path d="M176.3 319.8C181.05 319.8 184.9 315.95 184.9 311.2C184.9 306.45 181.05 302.6 176.3 302.6C171.55 302.6 167.7 306.45 167.7 311.2C167.7 315.95 171.55 319.8 176.3 319.8Z" fill="#FFBC0E"/>
<path d="M176.3 321.6C170.6 321.6 165.9 316.9 165.9 311.2C165.9 305.5 170.6 300.8 176.3 300.8C182 300.8 186.7 305.5 186.7 311.2C186.7 317 182.1 321.6 176.3 321.6ZM176.3 304.5C172.6 304.5 169.5 307.5 169.5 311.3C169.5 315.1 172.5 318.1 176.3 318.1C180 318.1 183.1 315.1 183.1 311.3C183.1 307.5 180 304.5 176.3 304.5Z" fill="#093F68"/>
<path d="M131.3 212.8L110.4 268L138.2 270.1L142.7 212.8H131.3Z" fill="#FF0E0E"/>
<path d="M138.2 271.9H138.1L110.3 269.8C109.3 269.7 108.5 268.8 108.6 267.8C108.6 267.6 108.7 267.5 108.7 267.3L129.6 212C129.9 211.3 130.6 210.8 131.3 210.8H142.6C143.6 210.8 144.4 211.6 144.4 212.6C144.4 212.7 144.4 212.7 144.4 212.8L139.9 270.1C139.9 271.2 139.1 271.9 138.2 271.9ZM113 266.4L136.5 268.2L140.7 214.7H132.6L113 266.4Z" fill="#093F68"/>
<path d="M118.8 197.2H227.3C229.5 197.2 231.3 199 231.3 201.2V216.5C231.3 218.7 229.5 220.5 227.3 220.5H118.8C116.6 220.5 114.8 218.7 114.8 216.5V201.2C114.7 199 116.5 197.2 118.8 197.2Z" fill="#FF0E0E"/>
<path d="M223.9 222.3H122.1C117 222.3 112.9 218.2 112.9 213.1V204.6C112.9 199.5 117 195.4 122.1 195.4H223.9C229 195.4 233.1 199.5 233.1 204.6V213.1C233.1 218.2 229 222.3 223.9 222.3ZM122.1 199C119 199 116.5 201.5 116.5 204.6V213.1C116.5 216.2 119 218.7 122.1 218.7H223.9C227 218.7 229.5 216.2 229.5 213.1V204.6C229.5 201.5 227 199 223.9 199H122.1Z" fill="#093F68"/>
<path d="M84.6 261.5C84 261.5 83.4 261.2 83.1 260.7L32.3 187.3C31.8 186.4 32 185.3 32.9 184.8C33.7 184.3 34.8 184.5 35.3 185.2L86.1 258.6C86.7 259.4 86.5 260.6 85.6 261.1C85.4 261.4 85 261.5 84.6 261.5Z" fill="#093F68"/>
<path d="M52.5 215.1H52.2C51.2 214.9 50.6 214 50.7 213L57.4 176.3C57.6 175.3 58.5 174.6 59.5 174.8C60.5 175 61.2 175.9 61 176.9L54.3 213.6C54.1 214.5 53.4 215.1 52.5 215.1Z" fill="#093F68"/>
<path d="M46.2 206.8H46L28.5 204.8C27.5 204.7 26.8 203.8 26.9 202.8C27 201.8 27.9 201.1 28.9 201.2L46.4 203.2C47.4 203.3 48.1 204.3 47.9 205.3C47.8 206.1 47.1 206.8 46.2 206.8Z" fill="#093F68"/>
<path d="M251.1 261.6C250.8 261.6 250.4 261.5 250.1 261.3C249.2 260.8 249 259.7 249.5 258.8L296.9 180.7C297.4 179.8 298.6 179.6 299.4 180.1C300.3 180.6 300.5 181.8 300 182.6L252.6 260.7C252.4 261.3 251.8 261.6 251.1 261.6Z" fill="#093F68"/>
<path d="M284.4 206.8C283.4 206.8 282.6 206 282.6 205V169.9C282.6 168.9 283.4 168.1 284.4 168.1C285.4 168.1 286.2 168.9 286.2 169.9V205C286.2 205.9 285.4 206.8 284.4 206.8Z" fill="#093F68"/>
<path d="M290.9 196C289.9 196 289.1 195.2 289.1 194.1C289.1 193.2 289.7 192.5 290.6 192.3L304.4 189.6C305.4 189.4 306.3 190.1 306.5 191.1C306.7 192.1 306 193 305.1 193.2L291.3 196H290.9Z" fill="#093F68"/>
<path d="M152.3 138.5C155.503 138.5 158.1 135.903 158.1 132.7C158.1 129.497 155.503 126.9 152.3 126.9C149.097 126.9 146.5 129.497 146.5 132.7C146.5 135.903 149.097 138.5 152.3 138.5Z" fill="#093F68"/>
<path d="M152.3 140.4C148.1 140.4 144.7 137 144.7 132.8C144.7 128.6 148.1 125.2 152.3 125.2C156.5 125.2 159.9 128.6 159.9 132.8C160 137 156.6 140.4 152.3 140.4ZM152.3 128.8C150.1 128.8 148.3 130.6 148.3 132.8C148.3 135 150.1 136.8 152.3 136.8C154.5 136.8 156.3 135 156.3 132.8C156.3 130.6 154.5 128.8 152.3 128.8Z" fill="#093F68"/>
<path d="M193.7 138.5C196.903 138.5 199.5 135.903 199.5 132.7C199.5 129.497 196.903 126.9 193.7 126.9C190.497 126.9 187.9 129.497 187.9 132.7C187.9 135.903 190.497 138.5 193.7 138.5Z" fill="#093F68"/>
<path d="M193.7 140.4C189.5 140.4 186.1 137 186.1 132.8C186.1 128.6 189.5 125.2 193.7 125.2C197.9 125.2 201.3 128.6 201.3 132.8C201.3 137 197.9 140.4 193.7 140.4ZM193.7 128.8C191.5 128.8 189.7 130.6 189.7 132.8C189.7 135 191.5 136.8 193.7 136.8C195.9 136.8 197.7 135 197.7 132.8C197.7 130.6 195.9 128.8 193.7 128.8Z" fill="#093F68"/>
<path d="M257.1 273.1C256.3 273.1 255.6 272.6 255.4 271.9C253.3 265.9 248.5 261.2 242.4 259.2C241.4 258.9 240.8 257.9 241.1 257C241.4 256 242.4 255.4 243.3 255.7H243.4C250.6 258 256.4 263.5 258.8 270.7C259.1 271.7 258.6 272.7 257.6 273C257.5 273 257.3 273.1 257.1 273.1Z" fill="#093F68"/>
<path d="M80.6 273.6C80.4 273.6 80.3 273.6 80.1 273.5C79.1 273.2 78.6 272.2 78.9 271.2C81.3 263 87.5 256.5 95.6 253.6C96.5 253.2 97.6 253.7 98 254.6C98.4 255.5 97.9 256.6 97 257C96.9 257 96.9 257 96.8 257.1C89.9 259.6 84.5 265.2 82.4 272.3C82.2 273.1 81.4 273.6 80.6 273.6Z" fill="#093F68"/>
<path d="M173.1 185.5C169.4 185.6 165.7 184.6 162.6 182.7C159.2 180.4 156.9 176.8 156.3 172.7C156.2 171.7 157 170.8 158 170.7C159 170.6 159.8 171.3 160 172.3C160.5 175.3 162.2 177.9 164.7 179.6C169 182.4 175.8 182.5 184.4 179.8C185.4 179.5 186.4 180 186.7 181C187 182 186.5 183 185.5 183.3C181.5 184.7 177.3 185.4 173.1 185.5Z" fill="#093F68"/>
</svg>
